<svg width="100%" height="100%" viewBox="0 0 1224 820" preserveAspectRatio="none" fill="none" xmlns="http://www.w3.org/2000/svg">
<g filter="url(#filter0_i_766_448)">
<path fill-rule="evenodd" clip-rule="evenodd" d="M1195.96 375.385C1178.39 435.817 1119.89 483.026 1083.37 538.694C1046.91 594.265 1041.82 663.282 979.816 704.854C917.412 746.692 825.11 748.93 744.013 766.209C658.973 784.327 564.06 843.347 488.446 809.545C401.132 770.512 435.467 664.315 377.577 602.398C340.233 562.456 268.642 550.717 217.696 519.962C142.269 474.429 26.2621 446.715 3.93501 376.841C-16.7876 311.988 58.7577 249.486 114.469 196.907C165.235 148.996 241.112 122.298 309.609 88.3581C373.514 56.6931 430.043 12.0587 506.065 2.87189C581.343 -6.2251 656.241 16.8537 726.908 37.9293C791.184 57.0987 834.925 101.123 899.282 120.144C993.006 147.844 1123.62 118.114 1189.24 174.571C1249.13 226.097 1215.24 309.063 1195.96 375.385Z" fill="#9DF2F7"/>
</g>
<defs>
<filter id="filter0_i_766_448" x="0.429688" y="0.835938" width="1222.68" height="818.969" filterUnits="userSpaceOnUse" color-interpolation-filters="sRGB">
<feFlood flood-opacity="0" result="BackgroundImageFix"/>
<feBlend mode="normal" in="SourceGraphic" in2="BackgroundImageFix" result="shape"/>
<feColorMatrix in="SourceAlpha" type="matrix" values="0 0 0 0 0 0 0 0 0 0 0 0 0 0 0 0 0 0 127 0" result="hardAlpha"/>
<feOffset/>
<feGaussianBlur stdDeviation="30"/>
<feComposite in2="hardAlpha" operator="arithmetic" k2="-1" k3="1"/>
<feColorMatrix type="matrix" values="0 0 0 0 0 0 0 0 0 0 0 0 0 0 0 0 0 0 0.2 0"/>
<feBlend mode="normal" in2="shape" result="effect1_innerShadow_766_448"/>
</filter>
</defs>
</svg>
