<?xml version="1.0" encoding="UTF-8"?><svg id="a" xmlns="http://www.w3.org/2000/svg" viewBox="0 0 826.22 171.65"><defs><style>.d{fill:#fff;}</style></defs><g><path class="d" d="M113.32,18.24c3.14-5.68,7.51-10.1,13.12-13.27,5.61-3.17,11.97-4.76,19.08-4.76,8.71,0,16.17,2.3,22.37,6.9,6.2,4.6,10.35,10.87,12.44,18.81h-19.65c-1.46-3.07-3.54-5.4-6.22-7-2.68-1.6-5.73-2.4-9.15-2.4-5.51,0-9.97,1.92-13.38,5.75-3.42,3.83-5.12,8.95-5.12,15.37s1.71,11.53,5.12,15.36c3.41,3.83,7.87,5.75,13.38,5.75,3.41,0,6.46-.8,9.15-2.4,2.68-1.6,4.76-3.94,6.22-7h19.65c-2.09,7.94-6.24,14.2-12.44,18.76-6.2,4.56-13.66,6.85-22.37,6.85-7.11,0-13.47-1.58-19.08-4.76-5.61-3.17-9.98-7.58-13.12-13.22-3.14-5.64-4.7-12.09-4.7-19.34s1.57-13.71,4.7-19.39Z"/><path class="d" d="M254.84,1.04V74.42h-17.87v-30.21h-27.8v30.21h-17.87V1.04h17.87V29.79h27.8V1.04h17.87Z"/><path class="d" d="M285.57,1.04V74.42h-17.87V1.04h17.87Z"/><path class="d" d="M316.41,60.62h23.41v13.8h-41.29V1.04h17.87V60.62Z"/><path class="d" d="M396.16,5.64c5.78,3.07,10.26,7.37,13.43,12.91,3.17,5.54,4.76,11.93,4.76,19.18s-1.59,13.55-4.76,19.13c-3.17,5.58-7.67,9.9-13.48,12.96-5.82,3.07-12.56,4.6-20.23,4.6h-27.49V1.04h27.49c7.73,0,14.49,1.53,20.28,4.6Zm-5.64,47.77c3.76-3.69,5.64-8.92,5.64-15.68s-1.88-12.02-5.64-15.78-9.02-5.64-15.78-5.64h-8.47V58.95h8.47c6.76,0,12.02-1.85,15.78-5.54Z"/><path class="d" d="M461.8,74.42l-15.26-27.7h-4.29v27.7h-17.87V1.04h30c5.78,0,10.71,1.01,14.79,3.03,4.08,2.02,7.12,4.79,9.15,8.31,2.02,3.52,3.03,7.44,3.03,11.76,0,4.88-1.38,9.23-4.13,13.07-2.75,3.83-6.81,6.55-12.18,8.15l16.93,29.06h-20.17Zm-19.55-40.35h11.08c3.27,0,5.73-.8,7.37-2.4,1.64-1.6,2.46-3.87,2.46-6.79s-.82-4.98-2.46-6.59c-1.64-1.6-4.09-2.4-7.37-2.4h-11.08v18.19Z"/><path class="d" d="M510.4,15.36v14.84h23.94v13.8h-23.94v16.1h27.07v14.32h-44.95V1.04h44.95V15.36h-27.07Z"/><path class="d" d="M614.71,74.42h-17.87l-29.89-45.26v45.26h-17.87V1.04h17.87l29.89,45.47V1.04h17.87V74.42Z"/><path class="d" d="M631.75,1.04h18.29l-11.71,28.01h-12.02l5.43-28.01Z"/><path class="d" d="M672.62,72.54c-4.25-1.74-7.65-4.32-10.19-7.73-2.54-3.41-3.88-7.53-4.02-12.33h19.02c.28,2.72,1.22,4.79,2.82,6.22,1.6,1.43,3.69,2.14,6.27,2.14s4.74-.61,6.27-1.83c1.53-1.22,2.3-2.91,2.3-5.07,0-1.81-.61-3.31-1.83-4.49-1.22-1.18-2.72-2.16-4.49-2.93-1.78-.77-4.3-1.64-7.58-2.61-4.74-1.46-8.61-2.93-11.6-4.39-3-1.46-5.58-3.62-7.74-6.48-2.16-2.86-3.24-6.58-3.24-11.18,0-6.83,2.47-12.18,7.42-16.04,4.95-3.87,11.39-5.8,19.34-5.8s14.6,1.93,19.55,5.8c4.95,3.87,7.59,9.25,7.94,16.15h-19.34c-.14-2.37-1.01-4.23-2.61-5.59-1.6-1.36-3.66-2.04-6.17-2.04-2.16,0-3.9,.57-5.23,1.72-1.32,1.15-1.99,2.81-1.99,4.96,0,2.37,1.11,4.22,3.35,5.54,2.23,1.32,5.71,2.75,10.45,4.29,4.74,1.6,8.59,3.14,11.55,4.6,2.96,1.46,5.52,3.59,7.68,6.38,2.16,2.79,3.24,6.38,3.24,10.77s-1.06,7.98-3.19,11.39c-2.13,3.42-5.21,6.13-9.25,8.15-4.04,2.02-8.82,3.03-14.32,3.03s-10.17-.87-14.42-2.61Z"/></g><g><path class="d" d="M183.31,90.66c.78,1.67,1.55,3.22,2.66,4.66,1,1.33,1.44,2.89,1.78,4.44,2.11,8.1,4.22,17.31,6.22,25.42,.56,2.55,1.11,5.11,2,8.1,.89-2.55,1.11-4.77,1.44-6.99,.55-3.44,.78-6.88,1.44-10.21,.67-3.77,1.33-7.55,2.22-11.21,.67-3.11,1.11-6.77,2.55-9.66,.78-1.44,2-2.66,3.55-2.33l2.66,.55c.67,.11,1.11,.33,1.67,.78,1.33,1.33,1.55,1.22,2.33-.67,0-.11,.11-.11,.33-.33,.56,.22,1,1,1.78,.33,.33-.33,1-.11,1.55,.11,.33,.11,.56,.44,.89,.56,3.88,1.22,4.11,4.33,4.22,7.55,0,.44-.11,.89-.11,1.22,.56,5.77-.44,11.54-.55,17.2,0,4.55,.11,9.21,.55,13.76,.44,3.77,.44,7.77,.89,11.54,.56,4.99,.11,9.99,.33,14.98,.11,2.11,.56,4.11,.44,6.21-.22,2.33-1.22,3.22-3.66,2.66-.56,.33-.33,.89-.44,1.33-.44,.89-1.11,1.11-2.11,.89-2.44-.33-4.11-1.78-5.99-3-2.22-1.44-2.66-3.33-2.66-5.44-.11-3.22-.33-6.33,0-9.54,.22-2,0-3.88-.22-5.77-.67-6.99-.56-13.87-1.11-20.87-.56-6.55-.44-13.1-1.33-19.65l-.33-.89c-.89,1.33-1.22,2.66-1.55,3.88-.78,2.77-1.89,5.55-2.44,8.32-1.11,5.66-2.44,11.21-2.44,16.98,0,1.22-.33,2.44-.44,3.77-.22,1.89-1.11,3.77-.33,5.66,.67,1.89-.89,2.89-1.67,4.11-.22,.44-.78,.22-1.11,0-.67-.22-1.33-.67-2.11-.56-.22,.78-.22,1.44,.89,1.44,1.11,.11,1.44,1.67,2,2.33-.44,.67-.89,.55-1.55,.67-1.89,.22-4.11,.11-4.77-.78-.89-1.11-1.11-1-2.33-1.67-1.89-1.11-3.11-3-3.88-4.99-2.66-6.77-5.22-13.65-7.21-20.64-1-3.77-2-7.66-3.11-11.43-.33-1.22-.67-2.44-1.22-3.77,.44,2.22-.67,4.33-.22,6.55,.44,2.66,0,5.33,.11,8.1,.22,4.44,.11,9.1,.44,13.54,.33,3.88,.56,7.77,1.11,11.54,.33,2.22,.67,4.44,.44,6.66-.33,3.66-.33,7.44-.22,11.1,.11,.55,.11,1.11-.22,1.66-.89,1.22-1.67,1.44-3.33,.56-.44,.22-.33,.89-1,1-.11-.22-.44-.33-.44-.67l-.33-6.22,.22-12.88c.11-3.88-.11-7.77-.55-11.65-.78-7.99-.89-16.09-.67-24.09,.11-5.66-.11-12.43,0-18.2,.11-.78,0-1.67-.11-2.44-.11-.89,.44-1.33,1.22-1.66,1.33-.44,2.55-.33,3.66,.11,.78-.33,.78-1.11,1.22-1.55,1.55-1.55,1.78-1.78,3.88-.89,1.22,.44,2.55,1,3.11,2.55,.11,.22,.33,.44,.78,.33,.22-1-.22-2.11,.33-3,.55-.11,.78,.11,.89,.44Zm31.74,29.19c1-2.22,.89-5.88-.22-7.21-1.11,2.55,.11,4.66,.22,7.21Z"/><path class="d" d="M268.12,94.54c1.89,2.11,2.77,4.55,3,7.33,.22,4.88,.22,10.88,.67,16.09,.33,3.77,.33,7.55,.78,11.32,.22,1.44,.22,2.78,.67,4.11,.78,3.22,.44,6.33,0,9.43-.67,4.44-.56,8.88-.78,13.21-.11,2,.11,4-.89,5.88-.33,.78-.11,1.55,.11,2.22,.11,.67,.56,1.33-.33,1.89-.33,.22-.11,.67,.11,.89,.55,.67,.22,1.22-.11,1.89q-.89,1.44-2.22,.55c-.89-.55-1.89-.67-2.33,0-2.44,3.77-3.33,.33-6.1,.67-.67,.11-1.22-.44-1.44-1.11-.33-1.33-.89-2.44-.78-3.88,0-3,.11-5.99,.11-8.88,0-3.22-.67-6.22-.89-9.32-.67-7.55-.22-14.98-.67-22.42-.22-3.88,.11-7.88,0-11.65-.22-4.55,.11-10.32,.22-14.87q.11-1.66,1.89-1.66c.33-.11,.56-.11,.78-.11,.33-.78-.22-1.44,0-2.22,.33-.56,1.11-.22,1.55-.78,.22-.22,.67-.44,.89-.33,2,.33,4.22,.11,5.77,1.78Zm.89,35.74v2.55c0,.44,.67,1.89,.78,2.44l.22,2.44c.11-.44,.11-.11,.44-1.33s.11-2.44,.11-3.11-.33-2.22-.44-3l-.56-4.66c-.22,.67-.55,3.22-.55,4.66Z"/><path class="d" d="M322.39,92.77c.33,1.55,1.66,2.44,2.22,4,1.44,4.33,1.67,8.88,3.33,13.21,2.44,6.66,4.22,13.65,6.66,20.31,.89,2.55,1.44,5.22,2.22,7.77,1.22,4.33,2.55,8.66,3.77,12.99,.11,.22,.22,.55,.56,.55,.55-5.44,.55-10.99-.56-16.54-.56,.78-.11,1.55-.22,2.33-.11,.78,.11,1.67-.11,2.44-.78-.22-.67-.78-.67-1.22,0-2.77-.11-5.66-.33-8.55,0-1.67,.33-3.44,.33-5.22,0-2.22-.22-4.33-.33-6.44-.22-2.22-.33-4.44-.22-6.66,.22-5.33,.33-10.54,.11-15.87,0-1,.67-1.67,1.11-2.33,.22-.33,.78-.33,1.11-.33,1,.11,3.11,1.89,3.22,2.89,.11,3.33,1,6.66,.78,10.1-.22,3.44,0,6.88-.11,10.43,0,2.66,.33,5.33,.11,8.1-.22,4.88,.11,9.77,0,14.76,0,3,.78,6.1,1,9.21,.22,3.88,1.11,7.66,1.33,11.54,0,1.11,.33,2.55-.33,3-1.44,1-.56,2-.56,3,0,.55,.11,1,.11,1.55,.11,1.44-.78,2.77-2,3.22-.55,.33-1,0-1.22-.44-.67-.89-1.44-.78-2.33-.89-2.11-.33-4.22,.33-6.1-.78-1.33,.67-2.33-.55-3.55-.67-1.44-.11-2-1-2.33-2.22-.78-2.77-1.66-5.44-2.33-8.21-1-4.33-2.55-8.32-3.55-12.65-1.22-5.88-3.22-11.54-4.99-17.31-1.44-4.55-2.77-8.99-3.66-13.65-.44-2.78-1.22-5.55-1.78-8.32-.78,.22-.55,.67-.55,.89-.22,9.21-.44,18.31-.44,27.53,0,6.55,.67,13.1,.78,19.76,.11,3.66,.78,7.33,1,10.99,.22,2,.11,4.11,.11,6.44-1.55-.67-2.44-1.89-4-2.22-.56-.11-.89-.89-.78-1.55,0-1-.33-1.89-.78-2.77-.44-.67-.55-1.55-.55-2.44-.44-5.22-.44-10.43-.67-15.76-.11-1.44,0-3-.44-4.55-.11-.33,0-.78,0-1.22,.44-6.33-.33-12.76-.22-19.09,.11-7.21,.11-14.32,.11-21.53,0-1.44-.11-3-.22-4.55,0-.89,0-1.33,1.22-1.67,1.55-.33,3-.78,4.55-.11,.56,.22,1.33-.11,1.78-.33,2.55-1.22,5.22-.89,7.77-1.22,.22,0,.67,.11,.67,.33Zm19.98,73.81c-.44-.89-.56-1.89-1.89-1.78q-.11,2,1.89,1.78Z"/><path class="d" d="M391.77,94.54c1.89,2.11,2.77,4.55,3,7.33,.22,4.88,.22,10.88,.67,16.09,.33,3.77,.33,7.55,.78,11.32,.22,1.44,.22,2.78,.67,4.11,.78,3.22,.44,6.33,0,9.43-.67,4.44-.56,8.88-.78,13.21-.11,2,.11,4-.89,5.88-.33,.78-.11,1.55,.11,2.22,.11,.67,.56,1.33-.33,1.89-.33,.22-.11,.67,.11,.89,.55,.67,.22,1.22-.11,1.89q-.89,1.44-2.22,.55c-.89-.55-1.89-.67-2.33,0-2.44,3.77-3.33,.33-6.1,.67-.67,.11-1.22-.44-1.44-1.11-.33-1.33-.89-2.44-.78-3.88,0-3,.11-5.99,.11-8.88,0-3.22-.67-6.22-.89-9.32-.67-7.55-.22-14.98-.67-22.42-.22-3.88,.11-7.88,0-11.65-.22-4.55,.11-10.32,.22-14.87q.11-1.66,1.89-1.66c.33-.11,.56-.11,.78-.11,.33-.78-.22-1.44,0-2.22,.33-.56,1.11-.22,1.55-.78,.22-.22,.67-.44,.89-.33,2,.33,4.22,.11,5.77,1.78Zm.89,35.74v2.55c0,.44,.67,1.89,.78,2.44l.22,2.44c.11-.44,.11-.11,.44-1.33s.11-2.44,.11-3.11-.33-2.22-.44-3l-.56-4.66c-.22,.67-.55,3.22-.55,4.66Z"/><path class="d" d="M428.84,158.25c-1.67,.67-2.22-1.33-2.66-2.33,1.67,.11,1.89,1.44,2.66,2.33Zm27.42-67.37c2.44,.67,4.22,2,4.99,4.66l2,6.33c.67,1.78,0,3.44-.22,5.11-.11,.78-1.22,.78-1.67,1.55-.44,1.11-1.22,2.11-1.78,3.22-.67-.22-.55-1-1-1.33-.78,.22-.33,1.22-1,1.55-.11,.11-.22,.11-.33-.11-1.78-2.33-2.78-4.88-2.22-7.88,.33-1.55,.11-3-.33-4.55-.56-2.11-3.44-4.66-5.44-3.88-1.11,.33-2.22,.89-3.33,1.33-1.22,.55-1.89,1.78-2.44,2.89-.55,1.11-1,3.11-1.67,4.11-1.11,1.22-1.11,4.44,.22,5.44,3.33,2.77,5.55,6.44,8.1,9.66,2,2.66,4.44,4.77,6.88,6.88,2,1.89,3.88,4,5.44,6.33,.56,.89,1.33,1.89,2.11,2.66,2.66,2.55,2.55,6.1,3.55,9.43,.67,2.33,.44,4.77,.55,7.21,0,1.11-.11,2.33-1.33,3-.67,.33-.55,.89-.67,1.44-.55,2.89-1.78,5.55-3.33,7.99-.67,1-1.55,1.89-2.78,2-.55,.11-.89,.44-1.22,.78-1.11,1.44-2.77,2.33-4.33,3.11-.44,.22-.89,.55-1.33,.33-1.33-.56-2.44,0-3.55,.55-3.33,1.89-8.88,.44-13.65-2.44-.44-.33-6.99-6.55-7.21-6.88-2.33-3.22,3.55,2.66,1.33-.78-.44-.78-1-2.11-.89-3.11,0-1.33-1.11-2-1.67-3-.22-.44-.78-.67-.89-1.33,.44-.33,1.55-.89,2.22-.22,.89,1,1.11,.44,1.78,.78,.67,.44,.78,.67,1.67,1.33,1.22,1,1.44,2,2.22,2.89,1.11,1.55,2.33,1.89,4,2.66,3.88,1.55,7.77,4.88,11.21,1.33,2.11-2.22,2.55-4.55,2.55-7.33-.11-2.89-.67-5.55-1.33-8.21-.11-.67-.44-1.22-.78-1.67-4.22-5.88-7.66-10.88-12.99-15.54-2.77-2.22-6.1-6.1-7.1-9.54-.44-1.78-1.55-3.33-1.78-5.11-.11-1-.22-2,.11-2.89,.89-3.11,1.33-6.44,2.55-9.43,1.67-4.33,4.66-7.44,8.44-9.99,1.11-.78,2.33-1,3.77-.78,2,.33,3.88-.44,5.88-.67,2.22-.22,4.44-.33,6.66,.11Zm-11.88,39.74c.33-.11-.89-2.44-1.66-3.33-1.11-1.55-2.33-2-2.55-2.77-1.55-1-2.78-2.44-4.55-2.89,2,3.33,5.99,6.77,8.77,8.99Z"/><path class="d" d="M535.84,91.88c.44,.67,0,1.33-.44,1.55-.89,.67-1.33,1.78-2.22,2.44-.67,.44,.11,.55,.11,1-.89,.44-1.89,.67-2.89,.55-1.89-.11-3.88-.22-5.77-.22-1.44-.11-2.89,0-4.33,.22-1.22,.11-1.89,.55-2.22,1.67-1-.22-1.78-.78-2.89-.67,.67,1.44,.22,3.22,2.11,4.11,.44,.22,.44,1,.44,1.55-.22,2.44,.33,4.77,.55,7.21,.33,3.33,.22,6.66,.22,9.99,.11,4.99-.22,9.88,0,14.87,.11,2,.33,3.88,.55,5.77,.44,3.22,.33,6.44,.33,9.66,0,1.22-.22,2.55-.11,3.88,.11,2.89-.44,5.77-.44,8.77-.11,2-1.33,3.66-1.67,5.66,0,.22,0,.33-.11,.44-1,.44-2.11,.33-3.11,.89-.33,.22-.78,0-1.22-.22-.67-.44-1.55-.89-2.33-1.33-.55-.22-1.11-.33-1.89,.11-1.55,.89-3.77-.78-3.66-2.66,.11-2.78-.22-5.66-.33-8.44-.11-2.55,0-4.99,.55-7.44,.33-2.22,.56-4.44-.11-6.66-.33-1.22-.44-2.44-.33-3.66,.22-1.89-.22-3.66-.22-5.44,0-4-.11-7.99-.11-11.99-.11-4.33-.22-8.66,.55-12.88,.33-1.67,.11-3.44,.11-5.22,.11-1.33-.11-2.77,.44-4.11,.33-.67,0-1.44-.11-2.22-.22-.67-.78-.89-1.22-1-2.11-.11-4.33-.33-6.44,0-2.22,.33-4.44,.11-6.66,.22-.67,.11-1.33-.11-1.89-.67,.33-.44,.67-.55,1-.67,.67-.22,1-.44,.78-1.33-.11-.67,.33-1,1.11-1.22,2-.55,4.22-.44,6.22-.55,4-.22,7.77-1.11,11.54-1.67,4.77-.55,9.43-1.67,14.32-1.33,3,.22,6.1,.11,9.1-.11h1.22c.78,0,1.11,.44,1.44,1.11Zm-28.64,6.66c-.44,.67-.44,3.11,.33,3.22l.67,.11c-.33-.89,.11-2.77-.67-3.44,0-.11-.22,0-.33,.11Z"/><path class="d" d="M582.13,92.99c3.22,.22,6.55,.22,9.32,2.11,1.55,1.22,3.33,2,5.11,2.66,1.44,.67,2.44,1.78,3,3.33,1.33,3.33,2.66,6.66,2.33,10.43-.11,1.22,.56,2.22,.56,3.44,.11,4.77-2.11,8.33-5.44,11.43-1.55,1.44-3.55,2.33-5.33,3.55-.55,.44-1,.89-1.89,1.11,.11-1,1.22-1.22,1.22-2.22-1.44,.33-2.33,1.33-3.33,2.22-.44,.44,.11,1.11,.56,1.44,1.55,1.33,3,2.89,4.44,4.33,2.33,2.22,3.66,4.99,4.77,7.88,1.78,4.66,3.66,9.32,5.77,13.76,.33,.78,.67,1.55,.78,2.44,.44,1.67,1.11,3.44,1.89,5,.55,.89,.33,1.67,.22,2.55-.11,1-.33,1.55-1.44,1.67-.11,0-.33,.33-.44,.55-.44,.67-1,.78-1.55,.22-1.11-1-2.11-1.55-3.44-.55-.22,.22-.89,.22-1.22,0-1.78-1.11-3.88-2-4.88-4-.44-1-1-1.89-1.55-2.77-3.55-7.33-6.66-14.76-9.66-22.31-.44-1.11-.89-2.11-1.55-3.22-1.44,.78-2.44,1.78-2.11,3.55v.89c-.89,4.11,0,8.21,0,12.43,.11,3.88,.44,7.88-.11,11.76-.22,1,.22,2.33-1.67,2.11-.33-.11-.55,.33-.55,.67-.22,.55-.33,1.11-.44,1.67-1.67-.67-2.77-2-4.22-3.22-1.33,1.33-2.89,1.66-4.44,.67-1.78-1-2.66-2.44-2.77-4.55-.11-1.78,.44-3.44,.33-5.22-.22-5-.22-10.1-.44-15.1,0-1-.22-1.89-.33-2.89-1.11-5.66-1.22-11.43-.89-17.2,.33-5.88,.33-11.65,.55-17.54,.11-2.77,.44-5.44,.22-8.32,0-.56,.11-1.11-.22-1.67-1.22,0-2.33,.78-3.55,.67-.33-.55,.67-.89,.11-1.33-.89-.89-.33-1.33,.55-1.67,4-1.33,8.1-2,12.43-1.44,3.11,.44,6.21,.44,9.32,.67Zm-4.88,37.07c.67-.33,.89-.44,1-.56,3.66-3.66,7.44-7.1,10.43-11.32,2-2.89,2.66-6.22,3.22-9.55,0-.55-.11-1-.33-1.44-.44-.89-.67-1.78-.55-2.78,.11-.78-.22-1.33-1-1.67-.55-.22-1-.67-1.55-1-2-1.55-3.88-3.33-6.66-4.11-1.67-.44-3.11-.33-4.88-.33,.78,10.88,.67,21.64,.33,32.74Z"/><path class="d" d="M665.82,95.32c-1.11,3-1.78,6.1-3.11,8.99-.11,.33-.22,.56-.22,.89-.11,4.55-2.44,8.44-3.66,12.65-1,3.33-1.78,6.55-3.22,9.66-1.11,2.44-1.11,3.22-1.11,5.88-.11,2.78,.56,5.55,.44,8.33,0,6.66,0,13.43-.11,20.2v1.44c.22,2.33,.33,4.77-1,6.88q-1.44-.89-2.77,.22c-1.11,1.11-1.22,1.11-2.44,.33-.44-.33-1-.67-1.44-1.11-.55-.44-.89-1.11-1.78-.78-.11,0-.22,0-.33-.11-.56-.22-.56-1.44-1.55-1-.67,.33-.44,1.22-.89,1.78-.11,.11-.22,.22-.44,.33-.56-.44-.67-1.22-.89-1.89-1.11-6.22-.55-12.32-.22-18.54,.33-3.66,.22-7.21-.33-10.77-.33-2.66-.55-5.22-2.33-7.44-1.22-1.44-1.44-3.55-1.89-5.33-1.78-6.44-3.22-13.1-4.66-19.65-.89-3.55-1.55-7.21-3.22-10.54-.55-1.22,.11-2.22,.56-3.33,.11-.22,.44-.33,.67-.22,4.11,.11,7.33,2,9.54,5.33,.89,1.33,1.67,2.66,2.89,4.22,.22-1.44,0-2.33-.55-3.33q-.33-.67,.44-1.89c.89,.67,1.66,1.44,1.78,2.66,.11,1,.44,1.78,1.11,2.55,.78,1.11,1.11,2.33,1.33,3.55,.89,4.22,2.22,8.44,3.22,12.65,.44,1.67,1.33,3.77,2.33,6.22,3.44-10.66,7.33-22.64,12.32-32.74,1.89,1,2.11,2.22,1.55,3.88Zm-25.08-.22c.22,.44,.33,1.44-.44,.89-.44-.11-.78-.55-.78-1-.11-.33,.11-.55,.44-.55,.44,0,.78,.22,.78,.67Z"/></g><g><g id="b"><path class="d" d="M99.88,101.33c1.8,1.33,2.79,2.82,2.16,5.31-.46,1.84-.49,3.93,1.08,5.54,6.35,5.38,7,8.91,3.44,16.62-1.04,2.24-1.79,4.7-2.2,7.13-1.81,10.55-16.8,14.69-23.03,7.17-.59-.71-1.39-1.24-2.09-1.86-.26-.32-.52-.63-.63-1.03-.22,.34,.13,.68,0,1.01,.3,1.93,2.12,2.97,2.98,4.81-5.57,.4-10.33,2.76-15.3,4.45-5.3,1.81-10.54,2.29-15.79-.09-2.22-1.48-3.95-3.48-5.72-5.43-2.08-4.6-4.15-9.19-6.23-13.79-.59-2.01-1.38-3.94-2.54-5.7-1.93-4.43-3.48-8.99-4.45-13.73l-.05-8.16c2.1-5.99,4.75-11.49,10.91-14.51,2.21-1.08,4.34-2.19,6.79-1.89,2.94,.37,5.23-.61,7.45-2.41,1.77-1.44,3.77-2.59,5.67-3.87,.96-.27,1.98-.24,2.9-.65,1.99-.21,3.94,.1,5.9,.43,1.82,.31,3.29,.69,5.23-.96,2.1-1.78,5.32-1.13,7.79,.74,1.75,.97,3.68,1.64,5.13,3.11,1.49,2.33,2.47,4.82,1.73,7.59-.38,1.42,.3,1.54,1.32,1.73,3.34,.61,5.18,2.34,4.5,6.01-.48,2.6,2.03,1.61,3.04,2.44Z"/><path class="d" d="M52.95,38.27c-.4-3.81-1.63-7.52-1.39-11.43,.12-1.91,.39-3.73,1.68-5.24,1.64-1.92,3.6-3.21,6.26-2.7,2.47,.47,3.57,2.31,4.15,4.55,.46,1.81,.86,3.64,1.29,5.45,1.58,1.54,1.09,3.72,1.71,5.55,.15,.61,.19,1.23,.28,1.85q.92,6.22-5.02,8.95c-.13,.05-.01,.08,.28-.05,5.48-2.55,5.54-2.52,7.07,3.55,.97,3.84,2.1,7.66,1.02,11.67-.63,1.23-1.49,1.9-2.55,1.53,3.23-.05,3.61,2.47,3.61,5.27,0,1.23,.02,2.47-.08,3.7-.03,.31-.1,.62-.19,.93-.69,1.71-1.55,3.32-2.74,4.74-.23,.21-.5,.36-.8,.47-.94,.12-1.83-.09-2.68-.48-2.65-2.02-4.46-4.6-5.15-7.88-.45-2.13-.24-4.12,1.63-5.63,.31-.25,1.24-.25,.75-.96-.3-.43-.66-1.41-1.34-1.01-4.39,2.58-3.77-1.21-4.42-3.4-.12-.4-.23-.8-.34-1.19-2.72-5.29-2.06-11.13-2.72-16.76-.06-.51,.06-1.04-.29-1.49Z"/><path class="d" d="M33.04,30.8c1.91,3.21,2.99,6.74,4.09,10.27-.25,1.24,.7,2.85-1.11,3.61-1.32,.58-1.19,1.18-.03,1.79,2.82-.4,4.35,1.12,5.5,3.46,1.42,2.9,1.69,6.12,2.75,9.11,.3,.89,.33,1.8,.34,2.72-.51,1.31-1.87,1.55-2.88,2.22-1.09,.73-.23,1.03,.19,1.47,.4,.02-.6,1.14,.56,.65,3.94-1.67,5.85-.58,6.67,3.73,.2,1.92,.48,3.84,.58,5.76,.13,2.43-.71,4.4-3.04,5.51-3.94,1.39-5.7-1.19-7.32-4.01-1.47-2.46-2.68-4.98-1.89-7.98,.04-.16,.46-.43-.09-.64-4.21-1.57-4.29-6.08-6.46-9.12-1.07-2.38-2.77-4.56-2.33-7.42l2.2-6.21c-3.45,2.26-4.24-.06-5.24-1.97-1.44-2.76-2.66-5.62-3.54-8.61-1.13-3.87-.48-6.09,2.23-7.53,3.12-1.66,5.54-1,8.06,2.19,.26,.33,.52,.65,.78,.97Z"/><path class="d" d="M.12,57.77c-.3-2.48,.51-4.39,2.83-5.53,2.66-.14,4.41,1.17,5.87,3.32,2.24,3.29,3.85,7.15,7.63,9.16,2.49,.85,4.25,2.57,5.63,4.74,2.38,4.56,7.22,7.05,9.74,11.51,1.73,2.71,2.68,5.57,1.6,8.79-1.35,1.64-2.96,2.28-4.99,1.28-2.25-2.38-4.51-4.76-6.76-7.14-2.27-2-1.18-3.88,.73-6.04-5.39,2.9-7.42,2.2-12.1-3.77-2.18-1.17-1.79-3.86-3.24-5.47-1.39-3-5.41-3.75-6.2-7.3-.27-1.18-1.17-2.22-.73-3.55Z"/><path class="d" d="M145.01,92.33v1.17c-1.49,5.22-5.07,8.65-9.67,11.19-2.87,1.59-6.08,2.62-8.45,5.05-1.1,.51-1.41-.26-1.78-1.04-.48-.99-.48-2.26-2.13-3.2,1.91,4.59-.74,6.33-4.03,7.81-1.51,.68-2.78,1.79-3.49,3.38-2.7,2.96-4.07,2.88-6.05-.56-.77-1.33-1.3-2.84-1.71-4.33-.76-2.79,.07-4.93,2.93-6.01,1.65-.62,3.29-1.29,4.97-1.84,1.47-.48,2.44-2.24,3.09-2.53,2.3-1.04,2.01-3.98,4.2-4.67,1.15-.36,1.15-1.37,1.43-2.21,2.06-6.4,9.02-10.09,15.46-8.22,3.07,.89,4.54,3.08,5.23,6Z"/><path class="d" d="M84.78,77.8c-4.67,.7-6.33-.6-6.02-5.28,.23-3.38-.92-7.2,2.41-9.87,.13-.11,.24-.5,.2-.53-3.29-2.1-.38-5.31-1.4-7.8,.66-1.72-.19-3.6,.54-5.32,.17-.16,.19-.33,.06-.53,.14-1.34,.92-1.97,2.24-2.05,.65-.04,.91-.75,.81-1.11-.14-.56-.61,.03-.93,.06-2.74,.26-2.27-2.09-2.91-3.54-.3-4.73-.35-9.45,.02-14.17,.89-2.19,.43-5.1,3.3-6.25,2.04-1.27,4.1-2.42,6.59-1.15,1.26,1.2,2.1,2.68,2.77,4.27-.22,2.89,.54,5.82-.28,8.69-1.26,1.07-.75,2.43-.61,3.73,.33,2.97,.65,5.94,.97,8.91-.65,1.46-2.16,.98-3.33,1.45,.2,.65,3.02,1.66-.46,1.87,4.16,2.34,2.44,5.97,2.54,9.19,.21,6.82-5.59,2.93-8.23,4.43,1.63,2.72,6.92,1.35,6.22,6.22-1.54,2.9-1.98,6.37-4.5,8.77Z"/></g><g id="c"><path class="d" d="M737.03,144.21c-3.29-2.04-4.72-5.42-6.3-8.69-.6-1.64-1.02-3.38-1.85-4.9-5.02-9.18-4.96-10.54,1.26-18.1,.34-1.85,.48-3.59-.43-5.43-1.07-2.16-.08-4.05,1.61-5.58,1.81-.96,2.78-2.25,2.46-4.51-.32-2.29,1.15-3.69,3.1-4.55,1.42-.63,2.18-1.44,1.74-3.12-.55-2.13,.16-4.11,1.03-6.04,2.57-3.79,6.09-5.86,10.71-5.95,.93,.47,2-.03,2.93,.44,.96,.96-.54,1.65-.25,2.65,6.32-1.44,12.59-5.07,19.1-.69,1.65,.46,3.4,.75,4.39,2.41,.1,.03,.2,.11,.29,.09,6.05-1.15,11.37,.79,16.42,3.86,3.1,.7,3.57,3.84,5.35,5.76,4.36,6.57,3.5,13.68,2.01,20.79-.64,3.05-1.68,6.01-2.72,8.95-1.33,2.45-1.09,5.55-3.15,7.69-.55,1.68-1.17,3.33-1.62,5.03-2.75,10.2-10.2,14.9-20.57,12.9-3.68-.71-7.33-1.52-11-2.29-1.2-.75-2.58-.62-3.9-.76-.77-.08-1.81,.56-2.28-.25-.69-1.18,.72-1.73,1.16-2.59,.19-.86,.38-1.72,.8-2.51,.31-1.44,.83-2.87,.62-4.36,.26,1.37-.31,2.67-.58,4-.3,.88-.65,1.73-1.65,2.05-2.1,1.64-3.64,3.95-6.17,5.08-4.35,1.14-8.45,.08-12.5-1.4Z"/><path class="d" d="M802.15,28.13c-1,3.19-2,6.38-3,9.57-.73,1.96-2.11,2.32-3.84,1.41-.19,.34-.41,.6-.36,.66,3,4.03,2.15,8.08,.25,12.24-1.2,2.64-1.59,5.81-3.3,7.99-1.66,2.11-1.72,3.92-1.77,6.33-.09,4.55-3.87,9.09-7.23,9.57-3.21-.58-4.29-1.53-4.6-4.79-.28-2.85-.86-5.84,1.32-8.34,1.17-3.24,3.73-2.42,6.23-1.71-.38-1.97-2.3-1.81-2.92-3.08,1.54-.53,2.43,1.65,4.23,.83-.19-.83-.85-1.37-1.54-1.49-3.12-.56-3.23-2.61-2.77-5.1,.49-2.65,.58-5.36,1.49-7.94,.65-1.85,1.59-3.36,3.47-4.13,.65-.46,1.34-.21,2.02-.13,.55,.07,1.13,.29,1.49-.36-.74-.95-2.14-.5-2.87-1.4-1.46-4.37,1.18-14.35,4.59-17.37,1.87-1.66,3.9-1.61,6.1-.73,2.23,.89,3.18,2.56,3.18,4.85,0,1.04-.11,2.07-.16,3.11Z"/><path class="d" d="M826.15,45.22c.34,2.45-.78,4.62-1.27,6.91-.44,3.42-.87,3.76-5.17,4.11-.36,.75-.07,1.47,.07,2.2,.36,6.7-3.12,11.63-9.7,13.67-.42,.13-.64,.06-.71,.64-.53,4.57-4.18,7.26-6.59,10.69-1.15,1.63-3.01,1.67-4.85,1.1-1.43-.58-1.62-1.9-1.9-3.17,.19-1.35,.39-2.71,.58-4.06,.35-3.84,2.59-6.75,4.94-9.5,1.58-1.84,2.95-3.75,4.05-5.9,1.69-3.3,4.04-6.04,7.31-7.91,2.21-2.42,3.2-5.54,4.8-8.31,2.39-4.16,5.72-4.36,8.44-.48Z"/><path class="d" d="M772.09,23.27l.06,5.02c-1.84,8.81-.92,17.81-1.82,26.69-.22,2.2-.42,3.93-3.16,2.64-1.21-.57-1.52,.37-1.91,.87-.62,.81,.48,.81,.81,1.01,1.98,1.19,2.4,3.08,2.27,5.13-.17,2.55-1.11,4.88-2.68,6.88-2.24,2.85-3.98,2.81-6.14-.04-.44-.58-.87-1.17-1.3-1.75-1.7-.96-.31-2.77-1.09-3.98,.68-2.09-1.18-5.17,2.4-6.12,.35-1.63-1.57-.36-1.73-1.35-2.15-5.42-.32-10.81,.13-16.21,.09-1.1,.59-1.37,1.66-.88,1.58,.73,3.14,1.58,4.95,1.67,.49-.25,.31-.57,.09-.89-1.5-1.6-3.75-1.68-5.55-2.7-.92-.52-1.6-.86-1.33-2.05,1.07-4.71,.74-9.55,1.24-14.32,.04-.42,.07-.83,.13-1.25,.59-4.31,2.15-6.31,5.06-6.52,3.25-.24,6.4,2.36,7.34,6.05,.18,.7,.37,1.4,.56,2.11Z"/><path class="d" d="M750.08,73.92l-.61,1.27-1.82,1.48c-1.04,.35-2.08,.32-3.12,.02-.8-.73-1.61-1.46-2.41-2.19-.97-1.94-2.04-3.83-2.89-5.83-.74-1.74-.97-3.33,1.53-4.16,1.35-.45,2.43-1.69,3.85-2.73-3.01-1.4-7.55,2.89-8.82-2.77-.39-2.9-1.14-5.78-.6-8.74,1.12-.79-.82-2.62,1.49-3.23-3.22,.1-3.75-1.47-3.61-3.95,.26-4.4,.5-8.86-1.82-12.92,.11-3.45-1.1-7.15,1.86-10.07,4.08-1.66,7.36-.29,8.92,3.76,.48,1.24,.84,2.53,1.26,3.8,.86,4.98,.88,10.04,1.31,15.06l-.61,1.2c-.83-.35-1.72-.5-1.87,.66-.17,1.31,1.22,.72,1.77,1.2,1.33,.63,1.43,1.97,1.67,3.14,.56,2.74,.86,5.54,1.55,8.24,.41,1.62-.33,2.73-.93,3.99,1.85,.47,2.25,2.17,2.54,3.57,.64,3.03,.92,6.13,1.35,9.2Z"/><path class="d" d="M702.48,92.28c1.6,1.3,3.09,2.72,4.27,4.43,2.67,2.57,5.31,5.16,8.04,7.67,1.26,1.16,2.93,.98,4.4,1.44,1.29,.4,2.64,.63,3.89,1.2,3.95,2.05,1.98,5.49,1.99,8.47-.44,.93-.83,1.89-1.33,2.79-1.49,2.7-2.4,2.86-5.09,.99-.88-1.4-2.02-2.5-3.62-3.05-.25-.18-.48-.46-.76-.54-3.41-.93-6.09-2.41-4.83-6.83-.61,.22-.92,.25-.96,.36q-1.38,3.78-5.25,2.2c-.86-.35-1.75-.63-2.63-.94-.93-.71-2-1.04-3.14-1.18-3.24-1.3-6.07-3.25-8.45-5.79-2.17-2.31-3.49-4.96-2.33-8.25,1.13-3.2,3.8-4.25,6.79-4.77,3.22-.56,6.18,.27,9,1.8Z"/><path class="d" d="M819.17,55.87c.79,.31,2.02,.42,1.89,1.48-.16,1.25-1.23,.42-1.92,.41-1.27-.65-.07-1.26,.04-1.89Z"/></g></g></svg>