<svg preserveAspectRatio="none"
height="100%" width="100%" viewBox="0 0 1222 500" fill="none" xmlns="http://www.w3.org/2000/svg">
<g clip-path="url(#clip0_408_123)">
<g filter="url(#filter0_i_408_123)">
<path d="M331.551 0.650857C330.108 1.39573 328.864 2.47434 327.922 3.79674C325.822 7.03785 322.289 8.46759 319.233 7.32424C315.986 6.08493 315.507 6.08493 316.941 7.80107C318.66 9.89808 317.514 9.61243 311.88 6.37132C306.628 3.41587 303.19 2.84379 300.708 4.46471C299.657 5.13421 300.325 5.41841 303.092 5.41841C306.818 5.41841 309.299 6.65772 309.299 8.56429C309.299 9.04112 308.628 9.13632 307.771 8.84992C305.193 7.89626 297.936 10.2797 295.931 12.8535C293.257 16.0946 293.546 17.6203 296.313 15.0458C297.992 13.6712 299.999 12.752 302.138 12.3767C305.479 11.8047 305.671 11.8999 304.716 13.7112C304.042 14.8988 303.17 15.9628 302.138 16.8571C298.412 19.907 296.599 27.7245 298.796 31.1568C299.369 32.1097 299.559 31.4424 299.082 28.9638C298.509 25.1507 300.228 23.8161 300.992 27.5341C301.278 28.9638 301.469 28.4877 301.565 26.2947C301.66 23.5305 302.424 22.1 305.479 19.3357C309.49 15.713 311.304 15.2362 315.41 16.8571C317.702 17.7148 317.893 18.2868 317.893 23.0536C317.893 29.1535 317.129 30.9663 312.164 36.5923C306.339 43.2657 305.383 48.9854 307.867 61.9499C309.394 69.9578 310.251 72.0548 315.983 80.9189C318.466 84.732 319.803 87.8779 319.803 89.9749C319.755 90.8744 319.901 91.7737 320.231 92.6123C320.56 93.4509 321.065 94.2094 321.713 94.8369C325.151 97.7924 335.463 103.703 338.137 104.275C339.479 104.51 340.732 105.103 341.765 105.991C343.197 107.707 341.095 109.137 334.985 110.662C327.25 112.663 320.757 115.714 320.088 117.621C319.418 119.718 316.937 122.673 315.887 122.673C314.454 122.673 312.161 119.623 312.161 117.621C312.161 116.477 311.302 113.901 310.251 111.901C309.222 110.045 308.573 108.003 308.341 105.895C308.341 104.083 307.959 103.514 306.718 103.798C305.381 104.084 304.999 105.037 305.19 108.373C305.381 113.235 305.668 113.426 299.27 104.56C295.737 99.603 292.586 98.1733 290.105 100.365C288.1 102.177 287.814 105.037 289.246 108.945C290.01 110.852 290.01 111.71 289.055 112.282C287.241 113.426 291.92 122.291 296.217 125.914L299.942 129.06L298.223 135.638C296.696 141.263 296.409 145.934 296.314 167.956L296.218 193.694L300.611 195.124L305.007 196.553L305.293 201.701C305.39 205.688 305.135 209.675 304.529 213.617C303.574 220.004 303.574 220.481 305.485 222.006C306.535 222.864 307.394 223.913 307.394 224.294C307.394 224.676 305.294 229.156 302.716 234.114C296.031 247.079 294.599 252.607 294.504 265.668C294.408 274.817 294.026 277.393 292.212 281.207C290.786 284.571 289.76 288.092 289.157 291.695C288.543 295.292 287.281 298.748 285.431 301.896C279.797 310.761 279.415 320.865 283.999 336.784C287.15 347.556 287.15 349.177 283.328 351.083C280.869 352.429 278.536 353.992 276.358 355.754C274.257 357.375 269.673 360.521 266.141 362.808C261.653 365.669 259.456 367.766 258.788 369.767C257.164 374.248 257.546 375.964 260.22 378.061C265.281 382.065 275.976 380.254 287.148 373.485C291.06 371.223 295.227 369.431 299.562 368.147C311.307 365.191 313.025 362.999 309.493 355.658C307.296 351.178 307.678 348.318 310.639 345.839C311.689 344.981 312.166 342.979 312.166 339.929C312.166 335.829 312.452 335.067 314.458 334.209C316.655 333.16 318.851 328.779 320.187 322.77C320.474 321.34 322.956 318.099 325.627 315.62C332.578 309.212 338.052 301.373 341.669 292.645C343.293 288.546 345.489 284.161 346.444 282.921L348.258 280.541L352.46 283.972C355.515 286.451 357.899 289.883 361.625 297.223C365.922 305.803 366.781 308.282 367.545 315.526C369.073 328.777 371.078 332.4 379.577 337.262C382.272 338.823 384.603 340.94 386.415 343.471C388.227 346.003 389.477 348.891 390.083 351.943C390.369 353.659 391.324 355.374 392.088 355.662C393.329 356.139 393.425 357.378 392.852 362.335C392.494 365.945 391.823 369.518 390.847 373.012C388.937 379.399 389.128 380.829 392.279 383.975C395.525 387.216 398.963 387.502 406.315 385.309C411.472 383.784 415.959 379.879 417.01 375.967C417.869 372.821 416.819 361 415.196 355.28C414.46 351.824 413.981 348.318 413.764 344.792C413.573 341.36 413.19 335.642 412.808 332.018C412.138 325.631 412.045 325.44 408.034 322.58L403.832 319.624V312.284C403.832 308.184 403.354 303.704 402.686 302.179C402.113 300.749 401.349 296.554 400.967 292.932L400.296 286.258L393.803 280.252L387.31 274.246L387.981 268.336C388.473 264.418 389.207 260.533 390.177 256.705C393.042 245.552 391.61 230.68 386.644 219.812C385.593 217.524 384.734 214.665 384.734 213.425C384.734 211.519 385.212 211.328 389.509 211.328C393.138 211.328 394.475 210.947 395.238 209.517C396.67 206.753 396.48 204.75 393.424 194.932C391.896 190.07 390.655 183.683 390.559 180.823C390.558 177.931 390.205 175.05 389.508 172.243C388.886 169.329 388.566 166.358 388.553 163.378C388.553 158.802 388.935 157.467 390.937 155.56C392.179 154.226 394.089 153.18 395.044 153.18C397.527 153.18 399.054 151.178 399.722 146.793C400.295 143.265 404.115 136.021 407.839 131.254C409.558 129.157 409.653 128.013 409.08 121.435C408.507 114.38 408.603 113.808 410.799 111.615C412.709 109.709 414.428 109.137 419.68 108.756C423.785 108.374 427.223 107.516 428.845 106.375C430.277 105.422 434.001 104.374 437.63 103.995C442.404 103.518 444.505 102.756 446.988 100.754C450.043 98.18 450.139 98.0847 448.42 96.1782C446.319 93.89 440.017 92.1746 433.237 92.1746C426.744 92.1746 424.262 90.84 427.986 89.4103C429.606 88.7693 431.264 88.228 432.951 87.7894C435.148 87.2173 436.388 84.5483 434.575 84.5483C431.71 84.5483 413.281 88.4566 410.512 89.696C408.697 90.4584 403.923 94.4628 400.006 98.4663L392.844 105.711L391.507 102.28C390.648 99.9913 389.598 98.8475 388.356 98.848C386.841 98.6718 385.395 98.1141 384.155 97.2271C382.531 96.1782 379.38 95.6061 375.083 95.5109C365.535 95.2245 364.103 93.6995 363.434 81.9722C363.051 75.2029 363.147 73.1066 364.197 72.725C365.534 72.2482 367.539 64.4314 367.539 59.8558C367.558 58.4218 367.048 57.0309 366.107 55.9475C365.182 54.929 364.671 53.6026 364.675 52.228C364.579 48.9869 359.709 37.6427 356.654 33.5432C353.132 28.8686 342.626 24.1977 337.472 25.0562C332.411 25.7257 330.787 24.2937 330.021 18.2869C328.97 10.7558 331.548 9.80212 336.037 16.0939C338.997 20.0975 339.762 20.2886 337.756 16.5707C336.801 14.5689 336.801 14.5689 338.426 15.9012C340.052 17.2335 340.05 17.2357 338.617 14.3762C337.834 12.8746 336.836 11.494 335.657 10.2774C334.798 9.51496 334.129 8.65654 334.129 8.18046C334.129 6.65549 343.105 7.22751 345.588 8.94291C347.88 10.4679 347.88 10.4679 346.638 8.94291C345.968 8.08521 345.684 7.32197 345.968 7.32197C347.305 7.32197 352.843 10.4679 354.944 12.3745C358.19 15.4244 357.426 12.8513 353.702 8.5613C348.453 2.36772 336.994 -1.63659 331.551 0.650857Z" fill="#9DF2F7" fill-opacity="0.57"/>
</g>
<g filter="url(#filter1_i_408_123)">
<path d="M617.729 59.3761C617.119 61.058 616.796 62.8303 616.774 64.619C616.774 66.4304 616.296 67.3833 615.437 67.3833C614.386 67.3833 613.909 66.0488 613.718 62.8077C613.432 59.0882 613.145 58.3272 611.521 58.3272C609.802 58.3272 609.611 59.0897 609.325 64.8094C609.039 72.2483 607.32 73.103 605.888 66.6208C604.647 61.0915 603.023 62.1404 602.642 68.6226C602.355 73.5798 602.642 74.4375 605.697 78.4419C607.855 81.3358 609.383 84.6479 610.184 88.1659C610.855 91.1214 611.999 94.3625 612.667 95.2202C614.672 97.5084 613.909 101.13 611.33 101.512C608.752 101.894 608.752 101.702 610.567 108.376C611.257 110.776 611.736 113.233 611.999 115.716C611.999 119.148 609.421 118.29 607.32 114.287C605.41 110.567 596.625 101.703 594.811 101.703C594.333 101.703 593.856 102.275 593.856 103.038C593.856 104.182 593.185 104.182 589.368 102.942C583.352 101.131 568.265 101.703 562.535 104.087C557.379 106.184 551.554 112.666 545.919 122.676C538.662 135.45 537.803 144.507 543.436 147.558C546.588 149.274 548.975 154.231 548.975 159.092C548.975 161.666 548.497 163.668 548.02 163.668C547.447 163.668 545.252 162.81 543.246 161.761C540.381 160.332 539.426 159.187 539.426 157.567C539.426 153.658 538.472 152.324 534.843 151.18C530.546 149.845 526.536 146.222 524.148 141.742C521.856 137.547 507.532 120.865 504.286 118.672C502.567 117.623 501.326 117.337 500.181 117.909C498.939 118.579 497.796 117.814 494.833 114.287C491.204 109.997 491.013 109.52 490.058 99.4149C489.007 89.2148 487.48 85.4016 485.093 86.8314C484.52 87.213 484.042 89.4052 484.042 91.7886C484.042 97.6036 482.323 97.219 477.261 90.2637C474.969 87.1178 472.487 84.3535 471.723 84.0671C468.858 82.923 468.858 85.3064 471.723 89.5964C476.211 96.3657 474.683 97.1275 468.476 91.3125C463.702 86.8321 461.124 85.7832 461.124 88.453C461.124 88.9299 462.938 91.3125 465.038 93.6007C469.435 98.3675 468.667 99.13 463.224 95.5073C459.214 92.743 458.259 92.5519 458.259 94.5536C458.259 95.3161 459.978 97.6036 462.173 99.5109C466.375 103.324 465.899 104.659 461.219 102.275C459.118 101.131 458.164 101.036 457.686 101.894C457.303 102.563 457.686 103.419 458.64 103.991C459.595 104.563 463.606 107.136 467.616 109.805C471.626 112.379 476.305 115.43 478.122 116.479C480.697 118.388 483.065 120.561 485.188 122.961C488.53 126.965 488.914 127.918 488.435 130.874C487.862 133.734 488.148 134.496 490.727 136.689C492.35 138.023 499.225 145.65 506.002 153.562C512.686 161.475 522.998 173.486 528.728 180.159C540.948 194.363 542.289 197.223 542.191 209.33C542.001 233.545 536.081 275.776 532.356 279.589C530.351 281.591 530.446 282.544 532.738 283.784C533.285 284.117 533.744 284.577 534.076 285.125C534.408 285.672 534.604 286.291 534.648 286.929C534.552 289.503 527.39 308.093 519.274 326.682L513.164 340.505V351.467C513.164 357.473 512.687 365.385 512.018 369.103C511.348 372.726 510.395 381.972 509.822 389.6C509.249 397.227 508.39 405.996 507.912 409.142C507.434 412.288 506.766 419.152 506.384 424.392C506.002 430.398 505.143 435.354 504 437.93C501.804 442.792 501.804 443.361 503.618 444.889C505.431 446.418 505.432 451.753 503.618 456.806C501.233 463.288 501.708 466.434 505.814 470.724C508.679 473.87 510.21 474.727 513.643 475.109C517.077 475.491 518.514 475.204 520.614 473.488C524.816 470.152 527.012 464.908 527.012 457.854C527.012 452.611 527.298 451.562 528.826 451.084C531.21 450.322 532.932 445.365 532.741 439.454C532.646 436.975 532.741 430.779 533.027 425.821L533.409 416.765L542.863 397.508C547.924 386.927 552.602 378.539 553.08 378.824C553.557 379.108 553.75 382.065 553.366 385.687C552.819 389.89 553.244 394.162 554.607 398.176C557.281 406.469 557.09 413.62 554.321 422.676C552.809 427.746 551.786 432.95 551.266 438.215C550.98 442.695 550.025 447.557 549.261 448.987C548.21 450.989 548.02 453.562 548.497 459.092C548.852 463.765 548.723 468.462 548.115 473.109C546.11 486.075 549.07 489.698 561.676 489.698C572.276 489.698 573.23 488.649 573.612 476.542C573.995 467.105 573.995 467.01 577.241 463.864C579.342 461.767 580.488 459.86 580.488 458.144C580.641 456.24 581.194 454.39 582.111 452.714C583.639 450.045 583.639 449.664 581.729 445.275C576.763 433.168 576.573 434.883 585.262 416.486C595.193 395.228 598.058 386.553 600.636 369.584C602.26 358.525 602.642 352.425 602.451 339.078C602.26 329.928 602.165 315.341 602.069 306.665L601.973 290.936L608.275 290.266C616.487 289.504 618.875 288.265 617.824 285.404C615.532 279.208 614.673 267.101 615.055 246.605C615.533 225.823 615.628 224.869 618.589 214.767C620.308 209.142 622.504 202.567 623.554 200.277C624.509 197.896 625.939 192.078 626.705 187.216C627.612 182.172 628.889 177.2 630.526 172.342C634.154 163.286 637.783 147.842 637.783 141.836C637.783 138.881 636.732 132.208 635.399 126.965C634.063 121.471 633.074 115.899 632.438 110.282C631.674 99.6998 631.388 98.6509 629.192 99.3189C627.664 99.7958 627.187 99.2238 626.327 95.7915C625.754 93.5033 624.99 90.9294 624.703 89.9765C623.653 86.3538 625.562 81.3966 629.573 77.0114C636.544 69.3851 637.69 67.2873 635.876 64.523C635.205 63.3789 634.73 63.3789 633.107 64.9047C631.961 65.9535 631.102 67.2851 631.102 67.8601C631.102 69.481 628.523 71.4828 627.855 70.434C627.568 69.9571 628.046 67.7649 628.906 65.5719C630.338 62.0444 630.338 61.3771 629.001 60.1416C627.282 58.3302 625.946 59.6647 624.704 64.5305C623.558 68.8205 621.935 67.9628 622.32 63.2912C622.79 57.5647 619.448 54.7053 617.729 59.3761Z" fill="#9DF2F7" fill-opacity="0.57"/>
</g>
<g filter="url(#filter2_i_408_123)">
<path d="M809.951 57.9445C800.498 59.7559 791.713 65.2852 788.657 71.1953C787.033 74.3412 786.747 76.9151 786.747 90.9283C786.652 113.14 788.466 120.671 795.723 127.249C801.071 132.111 800.211 136.115 792.858 140.405C789.038 142.693 787.51 142.979 781.495 142.883C776.055 142.693 774.333 142.979 773.283 144.218C772.232 145.457 771.946 150.033 771.851 164.047C771.66 188.451 770.036 194.266 758.96 210.568C752.179 220.578 750.461 224.296 750.461 229.062C750.461 232.111 749.79 233.256 745.973 236.878C737.475 244.695 736.329 248.699 740.053 256.611C741.677 260.043 742.631 260.997 745.209 261.473C749.602 262.236 750.748 261.378 748.935 258.518C748.461 257.811 748.132 257.018 747.968 256.183C747.804 255.348 747.808 254.489 747.981 253.656C748.744 250.796 750.654 251.082 751.418 254.228C752.182 257.374 754.283 257.851 754.283 254.897C754.492 252.717 754.973 250.572 755.715 248.51C756.513 246.203 756.994 243.798 757.147 241.361C757.147 236.785 757.911 235.451 761.73 233.067C770.325 227.92 776.435 222.486 779.3 217.338C782.165 212.286 782.355 212.095 783.215 214.288C783.597 215.527 783.886 220.008 783.693 224.298C783.407 232.401 783.12 232.973 775.385 243.078C773.858 245.08 771.471 250.037 770.134 254.041C768.702 258.045 766.124 263.574 764.214 266.339C760.585 271.582 760.585 273.298 764.405 273.298C767.556 273.298 767.365 275.679 763.832 281.306C762.208 283.785 759.248 289.219 757.147 293.413L753.328 300.944V314.767C753.328 326.873 753.614 329.352 755.333 333.452C757.052 337.455 757.338 339.266 756.765 344.986C756.001 353.375 756.669 354.329 763.449 354.329H768.51L771.184 361.574C772.891 366.227 775.342 370.573 778.441 374.443C780.924 377.589 782.929 380.353 782.929 380.64C782.929 381.021 782.07 381.021 780.924 380.735C779.205 380.258 779.014 380.545 779.492 382.546C779.969 384.358 779.778 384.835 778.25 384.835C775.672 384.835 775.004 387.695 776.627 392.273C778.346 396.944 777.581 400.567 773.572 406.764C763.735 422.297 768.987 429.923 784.36 422.2C793.432 417.719 796.106 415.336 799.065 409.521C801.208 405.568 803.946 401.966 807.183 398.842C810.811 395.41 812.53 393.027 812.53 391.501C812.53 389.88 810.047 386.734 803.936 380.729C794.578 371.482 792.477 367.288 792.477 358.041C792.477 349.556 793.336 347.649 797.825 345.648C800.117 344.695 802.026 343.455 802.026 342.787C802.026 342.215 800.499 339.068 798.685 335.828C794.388 328.202 794.101 321.815 797.729 314.57C802.217 305.704 805.846 304.465 807.66 311.138C808.997 315.809 808.997 321.627 807.66 335.733C806.514 348.031 806.706 349.079 811.194 355.18C813.294 358.136 813.486 359.089 812.913 364.141L812.242 369.861L815.107 369.289L818.067 368.717L818.64 374.341C819.101 378.074 818.842 381.86 817.877 385.495C817.014 388.886 816.345 392.324 815.872 395.79C815.394 398.84 814.344 401.415 812.817 403.036C810.907 405.133 810.716 405.896 811.48 408.088C812.244 410.09 811.957 412.188 810.143 418.003C807.088 427.345 807.088 430.396 809.952 431.444C813.963 432.969 827.522 433.637 831.628 432.493C837.067 431.063 838.789 427.25 836.593 421.339C835.352 418.003 835.257 416.859 836.211 415.524C838.503 412.283 838.503 411.329 836.02 408.755C831.055 403.607 830.96 400.557 835.638 385.685C839.267 373.959 839.935 372.434 841.845 372.434C844.71 372.434 844.996 371.576 843.85 367.095C842.418 361.947 843.373 358.802 847.86 353.94C849.866 351.747 852.062 348.792 852.54 347.362C854.545 342.023 859.415 311.518 860.274 298.076C861.706 277.768 862.566 274.625 867.34 273.007C868.011 272.817 867.531 271.196 866.194 268.622C863.998 264.809 863.998 264.427 865.144 256.229L866.29 247.84L862.279 240.881C859.976 236.896 858.027 232.718 856.455 228.393C853.877 220.954 853.972 210.375 856.455 210.375C856.932 210.375 859.701 214.951 862.662 220.575C865.622 226.295 869.537 232.775 871.351 235.161C874.025 238.592 874.598 239.927 873.929 241.834C873.459 244.189 873.204 246.582 873.166 248.984C873.166 252.606 873.548 253.75 874.598 253.75C875.553 253.75 875.934 252.988 875.839 251.558C875.648 250.414 875.934 249.461 876.412 249.461C877.463 249.461 881.282 258.327 881.282 260.901C881.282 263.57 885.102 263.093 889.017 259.947C891.401 257.945 891.785 256.897 891.785 253.083C891.785 247.935 890.735 244.598 887.488 239.927C885.961 237.735 884.815 234.113 884.146 229.439C882.523 218.571 880.613 212.85 874.884 200.839L869.635 189.885L868.298 174.635C867.628 166.247 867.248 157.952 867.535 156.332C868.871 149.183 865.338 144.606 858.464 144.606C854.738 144.606 852.734 143.844 847.1 140.221C840.511 136.026 839.27 134.121 843.186 134.121C845.668 134.121 845.478 133.452 842.135 130.308C839.175 127.544 838.315 123.349 840.416 122.11C840.989 121.728 842.04 122.205 842.708 123.063C843.759 124.588 843.949 124.588 844.235 122.491C844.522 120.394 844.808 120.298 851.301 120.584C857.508 120.87 858.272 120.774 859.704 118.773C860.467 117.759 860.99 116.585 861.232 115.34C861.232 114.671 857.986 110.478 853.975 105.998C845.763 96.7507 845.954 97.7044 849.869 84.2624L851.779 77.7802L849.774 73.5854C844.042 61.7577 826.185 54.7034 809.951 57.9445Z" fill="#9DF2F7" fill-opacity="0.57"/>
</g>
<g filter="url(#filter3_i_408_123)">
<path d="M158.907 75.7979C153.941 78.2766 148.881 85.9028 147.448 93.056C146.685 96.5835 146.016 99.7294 146.016 100.11C146.016 100.587 144.584 102.491 142.865 104.4C138.95 108.785 125.486 131.76 122.523 139.005C120.996 142.628 119.755 144.344 118.417 144.534C116.793 144.82 116.412 144.344 116.412 142.342C116.412 141.008 115.457 138.147 114.311 136.05C112.116 132.331 112.116 132.237 113.929 130.903C115.266 129.854 115.457 129.473 114.407 129.473C113.452 129.378 113.548 128.996 114.884 128.043C116.699 126.709 116.699 126.613 114.407 126.613C112.975 126.613 110.97 125.565 109.632 124.135C106.099 120.226 98.1735 115.46 91.7759 113.363C83.2771 110.502 70.8641 110.598 64.3703 113.648C55.0124 117.938 46.9911 130.045 44.7953 142.915C43.4585 150.828 43.9361 153.21 47.6603 157.5C51.0975 161.313 51.0975 162.171 48.6155 165.794C45.942 169.416 41.0719 181.333 40.4035 185.908C39.5444 190.961 41.0741 190.675 49.7615 184.479C53.6764 181.618 57.4005 179.048 58.0689 178.664C58.7395 178.187 59.501 178.949 60.1693 180.857C61.0285 183.145 62.2698 184.098 66.3762 185.719C68.3887 186.525 70.4648 187.163 72.5831 187.625C73.6227 187.803 74.624 188.158 75.5434 188.674C77.4532 189.723 77.4532 189.723 75.3527 191.153C73.5383 192.392 73.2522 193.346 73.6337 197.063C74.0524 200.087 75.1279 202.982 76.7848 205.548L79.4583 209.551L76.7848 213.46C74.8751 216.415 74.4004 218.13 74.7797 220.133C75.0658 221.658 75.6388 224.041 75.9257 225.563C76.4033 227.66 75.9257 228.519 73.443 230.425C69.7173 233.094 67.7137 237.671 67.7137 243.199C67.8243 245.572 67.1535 247.916 65.804 249.873C62.8436 253.686 58.3527 263.791 57.1143 269.511C56.0746 273.529 54.2236 277.292 51.675 280.57C39.5481 296.776 34.9641 318.607 38.5929 343.011C39.452 349.018 41.0756 358.074 42.1262 363.031C43.3654 368.939 43.843 373.707 43.4607 376.757C42.9831 381.333 32.6706 408.121 27.4183 418.607C24.9355 423.564 24.0764 424.422 19.5885 426.424C12.3318 429.664 10.6128 432.048 8.13227 443.105C7.84317 444.44 5.93342 447.395 3.73606 449.588C-0.177325 453.878 -1.0372 456.738 1.2548 458.072C1.92541 458.454 5.83804 462.839 9.84904 467.7C21.0229 481.142 32.0976 488.674 42.0286 489.53C48.4262 490.102 52.4372 488.29 52.4372 484.859C52.4372 481.903 48.1401 475.04 44.7029 472.561C42.1247 470.75 41.8379 470.082 42.3185 467.131C42.6046 464.938 44.2282 462.364 46.711 459.79C50.2443 456.167 50.5305 455.5 50.5305 450.64C50.5305 446.445 51.1035 444.444 53.2993 441.012C54.8268 438.632 56.5458 436.341 57.1188 436.055C57.6918 435.673 59.0286 433.674 60.0792 431.574C61.1298 429.573 62.7527 427.855 63.5164 427.855C65.8084 427.855 64.7578 436.625 62.0843 440.248C59.2193 444.252 59.3154 450.067 62.4666 452.448C65.7131 455.022 73.6389 456.833 78.509 456.071C89.9675 454.259 110.689 445.775 112.598 442.153C115.463 436.91 111.262 433.192 103.813 434.145L99.3255 434.717L99.0371 429.092C98.751 423.372 100.469 418.603 104.766 413.173C105.817 411.743 106.867 408.502 107.151 405.07C107.502 401.878 108.24 398.741 109.348 395.726C111.733 390.197 113.744 367.794 112.499 360.263C109.062 338.337 105.815 326.23 101.136 316.792C98.4627 311.454 96.3614 305.925 96.3614 304.399C96.3614 302.398 97.6028 300.205 100.659 296.961L104.956 292.29L108.298 294.387C110.207 295.531 111.831 296.389 112.023 296.198C112.118 296.008 113.933 291.908 115.938 287.237C117.943 282.47 122.622 271.988 126.444 263.879C130.266 255.771 134.37 246.148 135.42 242.525C138.857 231.467 140.385 210.971 138.38 204.012C137.617 201.057 137.71 200.676 140.385 199.245C142.009 198.388 145.732 196.196 148.788 194.383C151.749 192.667 157.573 189.713 161.775 187.901C178.008 180.752 188.989 173.029 192.14 166.643C192.811 165.308 195.005 163.115 197.201 161.685C199.938 159.664 202.189 157.058 203.789 154.059C205.353 151.111 207.349 148.412 209.709 146.051C214.579 141.38 213.72 138.043 208.563 141.475C206.558 142.81 206.179 142.81 206.179 141.666C206.179 140.903 207.23 139.285 208.563 138.043C211.141 135.565 210.948 134.23 207.8 134.23C205.221 134.23 197.487 142.428 194.909 147.862C192.331 153.296 191.472 153.869 184.692 154.726C180.586 155.203 177.241 156.347 172.756 159.016C169.319 161.018 164.448 163.592 161.87 164.736C159.197 165.785 153.371 169.125 148.788 171.981C142.104 176.271 139.335 177.412 134.465 178.081C130.836 178.558 127.972 178.558 127.494 178.081C127.016 177.604 129.022 173.601 132.364 168.357C140.385 156.059 144.3 147.861 149.457 133.085C152.417 124.315 153.944 118.213 154.327 113.256C154.804 106.774 155.186 105.817 158.052 102.767C160.39 99.9492 162.172 96.7146 163.304 93.2346C164.355 89.803 166.169 85.7957 167.219 84.369C168.842 82.0808 168.938 81.4135 167.889 80.7462C167.03 80.2694 165.693 80.8415 163.783 82.5576L161.014 85.1314L161.685 82.3672C163.872 73.4153 163.777 73.2241 158.907 75.7979Z" fill="#9DF2F7" fill-opacity="0.57"/>
</g>
<g filter="url(#filter4_i_408_123)">
<path d="M1069.87 124.581C1061.18 125.25 1060.22 125.533 1058.41 127.822C1057.36 129.156 1055.54 130.3 1054.4 130.3C1051.34 130.3 1047.71 135.353 1046.47 141.454C1044.95 148.699 1044.85 171.674 1046.38 176.821C1046.67 178.104 1047.21 179.315 1047.98 180.38C1048.76 181.445 1049.74 182.343 1050.87 183.018C1056.02 186.354 1056.31 191.979 1051.25 190.644C1050.29 190.358 1048.29 190.835 1046.85 191.693L1044.08 193.123L1047.23 193.218C1052.96 193.218 1050.48 195.41 1038.83 200.657C1036.45 201.706 1031.19 205.519 1027.18 209.142C1004.55 229.161 998.248 234.21 988.699 240.41C977.241 247.941 972.37 252.517 965.973 261.573C962.962 265.752 959.432 269.532 955.467 272.822C949.833 277.493 949.069 278.542 949.069 281.402C949.069 285.311 946.873 287.122 940.857 288.076C935.418 288.933 931.499 291.507 929.589 295.607C927.393 300.278 928.634 302.089 931.69 298.467C933.982 295.798 933.982 295.798 932.453 298.277C930.734 301.137 930.448 305.331 931.88 306.189C932.453 306.475 932.835 306.38 932.835 305.999C933.059 305.062 933.483 304.184 934.076 303.425C935.127 301.995 935.222 302.281 934.935 305.617C934.458 310.193 935.986 310.765 937.99 306.857C938.787 305.313 939.854 303.924 941.142 302.757C942.764 301.518 942.764 301.518 941.237 303.427C939.327 305.619 938.945 308.574 940.566 308.574C941.139 308.574 942.951 307.525 944.672 306.194C948.491 303.238 950.497 303.048 949.068 305.622C948.018 307.719 948.687 310.484 950.405 310.484C952.789 310.484 958.712 302.762 959.381 298.758C960.144 294.754 960.144 294.754 963.964 295.039C967.783 295.323 967.879 295.229 971.317 289.7C974.086 285.125 977.714 281.693 988.028 273.494C995.189 267.774 1003.69 261.768 1006.84 260.053C1009.99 258.432 1016 254.047 1020.21 250.425C1027.08 244.419 1032.53 240.987 1033.58 241.94C1033.77 242.131 1033.58 254.333 1033.1 269.017C1032.33 297.426 1032.14 298.665 1026.99 306.196C1024.89 309.151 1024.41 310.772 1024.79 313.537C1025.27 317.159 1023.74 326.883 1019.25 349.094C1016.29 363.489 1014.57 366.73 1006.74 372.641L1001.3 376.741L1005.03 377.694C1010.66 379.124 1011.05 379.601 1010.09 383.605C1009.61 385.797 1009.71 391.708 1010.28 398.952C1011.9 416.493 1011.24 423.167 1007.03 430.602C1003.88 436.321 1003.6 437.751 1002.64 448.715L1001.59 460.62L1004.94 463.48C1008.95 466.911 1009.14 468.91 1005.89 473.108C1000.26 480.449 1001.02 484.452 1008.66 487.312C1014.39 489.505 1024.42 488.933 1028.04 486.264C1033.01 482.544 1034.44 479.59 1034.25 473.68C1034.23 469.661 1034.87 465.667 1036.16 461.859C1038.26 455.472 1038.26 455.377 1036.64 446.13C1035.68 440.982 1034.44 434.595 1033.87 432.021C1032.91 427.826 1033.11 426.682 1034.82 422.679C1036.06 419.914 1037.69 417.817 1039.12 417.34C1040.7 416.515 1041.95 415.167 1042.65 413.527C1043.51 411.238 1044.75 410.381 1047.81 409.523C1053.35 408.093 1056.6 404.566 1058.89 397.702C1061.27 390.648 1063.66 388.169 1069.39 386.835C1076.84 385.214 1084.1 387.883 1089.64 394.273C1093.07 398.277 1099.76 409.908 1107.01 424.588C1110.74 432.119 1111.41 434.216 1111.41 439.078C1111.35 441.475 1111.55 443.871 1111.98 446.228C1112.27 447.085 1115.13 449.088 1118.29 450.803C1126.12 454.998 1127.07 457.095 1125.64 466.914C1124.68 473.778 1124.68 474.731 1126.21 476.352C1128.03 478.354 1137 482.072 1139.96 482.072C1141.01 482.072 1146.07 483.788 1151.32 485.885C1162.88 490.556 1168.51 490.937 1172.05 487.315C1172.81 486.632 1173.42 485.794 1173.83 484.857C1174.24 483.921 1174.44 482.907 1174.43 481.884C1174.43 479.215 1173.38 477.69 1167.94 472.542C1164.4 469.11 1160.49 465.583 1159.34 464.725C1158.72 464.192 1158.21 463.536 1157.85 462.798C1157.48 462.06 1157.28 461.256 1157.24 460.435C1157.24 459.101 1156.1 456.05 1154.76 453.666C1152.95 450.52 1152.38 448.613 1152.75 446.227C1153.23 443.463 1152.95 442.891 1150.18 441.27C1145.59 438.601 1142.06 430.781 1141.1 421.441C1140.63 416.96 1139.48 412.291 1138.34 410.001L1136.33 405.998L1138.34 404.282C1139.7 402.865 1140.8 401.219 1141.58 399.42C1143.21 395.7 1142.16 392.27 1137.09 384.739C1133.47 379.309 1133.27 378.162 1136.23 378.162C1136.8 378.117 1137.36 377.959 1137.87 377.697C1138.38 377.435 1138.83 377.075 1139.19 376.637C1140.91 374.54 1138.72 372.917 1131.27 370.917C1128.21 370.059 1125.25 368.724 1124.68 368.057C1124.11 367.294 1123.25 362.051 1122.87 356.426C1122.2 345.937 1120.38 340.792 1114.37 331.926C1113.03 329.924 1112.36 327.537 1112.36 324.205C1112.36 321.344 1111.88 318.867 1111.12 318.199C1110.17 317.529 1109.69 312.956 1109.4 301.707C1108.64 270.057 1108.92 264.147 1111.6 252.802C1113.03 246.987 1114.46 240.696 1114.75 238.693C1115.04 236.691 1115.99 234.785 1116.75 234.498C1117.52 234.212 1120.57 234.88 1123.44 236.023C1126.4 237.072 1130.6 238.025 1132.7 238.025C1135.4 238.195 1138.05 238.84 1140.53 239.932C1142.88 240.999 1145.41 241.644 1147.98 241.838C1150.23 241.904 1152.41 242.598 1154.29 243.84C1157.25 246.032 1173.1 250.322 1178.35 250.417C1180.7 250.516 1183.03 250.999 1185.22 251.847C1187.42 252.686 1189.75 253.169 1192.1 253.277C1195.15 253.277 1195.44 253.086 1195.44 250.417C1195.44 247.08 1198.02 245.65 1203.75 245.65C1206.23 245.65 1207.19 245.173 1207.57 243.743C1207.71 243.231 1208.01 242.775 1208.42 242.434C1208.83 242.094 1209.33 241.885 1209.86 241.837C1211.1 241.837 1211.67 241.167 1211.67 239.549C1211.67 238.024 1212.34 236.975 1213.68 236.593C1215.21 236.116 1215.49 235.449 1215.11 233.638C1214.54 231.541 1214.73 231.349 1218.36 231.349C1222.94 231.349 1223.13 230.396 1219.31 227.155C1214.06 222.766 1207.28 222.766 1201.46 227.155C1196.68 230.777 1192.38 230.11 1175.77 223.151C1171.47 221.34 1166.7 219.91 1165.17 219.91C1163.45 219.906 1161.8 219.22 1160.59 218.003C1159.06 216.287 1158.68 216.287 1156.1 217.622C1153.43 219.052 1153.14 218.956 1150.94 216.478C1148.65 214.097 1148.17 213.999 1142.25 214.476L1136.05 214.953L1130.89 210.282C1124.49 204.562 1119.43 201.321 1112.75 198.747C1108.35 197.031 1107.02 196.936 1103.96 197.794C1101.29 198.651 1100.33 198.651 1099.76 197.698C1099.38 197.029 1099.57 196.459 1100.43 196.269C1102.44 195.792 1102.25 194.457 1099.95 193.219C1099.44 192.962 1099 192.584 1098.67 192.119C1098.34 191.654 1098.12 191.116 1098.04 190.55C1098.04 188.071 1102.15 179.873 1107.02 172.627C1109.79 168.432 1111.42 165.001 1111.42 163.19C1111.42 161.665 1109.89 155.373 1107.88 149.367C1104.73 139.357 1103.87 137.927 1099.19 132.875C1094.23 127.727 1093.65 127.444 1089.36 127.444C1085.73 127.444 1084.49 127.063 1083.72 125.538C1083.46 125.038 1083.08 124.611 1082.62 124.295C1082.15 123.979 1081.61 123.784 1081.05 123.727C1080.18 123.818 1075.12 124.2 1069.87 124.581Z" fill="#9DF2F7" fill-opacity="0.57"/>
</g>
</g>
<defs>
<filter id="filter0_i_408_123" x="257.82" y="0" width="191.719" height="386.727" filterUnits="userSpaceOnUse" color-interpolation-filters="sRGB">
<feFlood flood-opacity="0" result="BackgroundImageFix"/>
<feBlend mode="normal" in="SourceGraphic" in2="BackgroundImageFix" result="shape"/>
<feColorMatrix in="SourceAlpha" type="matrix" values="0 0 0 0 0 0 0 0 0 0 0 0 0 0 0 0 0 0 127 0" result="hardAlpha"/>
<feOffset/>
<feGaussianBlur stdDeviation="10"/>
<feComposite in2="hardAlpha" operator="arithmetic" k2="-1" k3="1"/>
<feColorMatrix type="matrix" values="0 0 0 0 0 0 0 0 0 0 0 0 0 0 0 0 0 0 0.1 0"/>
<feBlend mode="normal" in2="shape" result="effect1_innerShadow_408_123"/>
</filter>
<filter id="filter1_i_408_123" x="457.539" y="57.0391" width="180.242" height="432.656" filterUnits="userSpaceOnUse" color-interpolation-filters="sRGB">
<feFlood flood-opacity="0" result="BackgroundImageFix"/>
<feBlend mode="normal" in="SourceGraphic" in2="BackgroundImageFix" result="shape"/>
<feColorMatrix in="SourceAlpha" type="matrix" values="0 0 0 0 0 0 0 0 0 0 0 0 0 0 0 0 0 0 127 0" result="hardAlpha"/>
<feOffset/>
<feGaussianBlur stdDeviation="10"/>
<feComposite in2="hardAlpha" operator="arithmetic" k2="-1" k3="1"/>
<feColorMatrix type="matrix" values="0 0 0 0 0 0 0 0 0 0 0 0 0 0 0 0 0 0 0.1 0"/>
<feBlend mode="normal" in2="shape" result="effect1_innerShadow_408_123"/>
</filter>
<filter id="filter2_i_408_123" x="738.039" y="57.1562" width="153.75" height="375.914" filterUnits="userSpaceOnUse" color-interpolation-filters="sRGB">
<feFlood flood-opacity="0" result="BackgroundImageFix"/>
<feBlend mode="normal" in="SourceGraphic" in2="BackgroundImageFix" result="shape"/>
<feColorMatrix in="SourceAlpha" type="matrix" values="0 0 0 0 0 0 0 0 0 0 0 0 0 0 0 0 0 0 127 0" result="hardAlpha"/>
<feOffset/>
<feGaussianBlur stdDeviation="10"/>
<feComposite in2="hardAlpha" operator="arithmetic" k2="-1" k3="1"/>
<feColorMatrix type="matrix" values="0 0 0 0 0 0 0 0 0 0 0 0 0 0 0 0 0 0 0.1 0"/>
<feBlend mode="normal" in2="shape" result="effect1_innerShadow_408_123"/>
</filter>
<filter id="filter3_i_408_123" x="0" y="74.3672" width="212.938" height="415.266" filterUnits="userSpaceOnUse" color-interpolation-filters="sRGB">
<feFlood flood-opacity="0" result="BackgroundImageFix"/>
<feBlend mode="normal" in="SourceGraphic" in2="BackgroundImageFix" result="shape"/>
<feColorMatrix in="SourceAlpha" type="matrix" values="0 0 0 0 0 0 0 0 0 0 0 0 0 0 0 0 0 0 127 0" result="hardAlpha"/>
<feOffset/>
<feGaussianBlur stdDeviation="10"/>
<feComposite in2="hardAlpha" operator="arithmetic" k2="-1" k3="1"/>
<feColorMatrix type="matrix" values="0 0 0 0 0 0 0 0 0 0 0 0 0 0 0 0 0 0 0.1 0"/>
<feBlend mode="normal" in2="shape" result="effect1_innerShadow_408_123"/>
</filter>
<filter id="filter4_i_408_123" x="928.477" y="123.727" width="293.523" height="366.023" filterUnits="userSpaceOnUse" color-interpolation-filters="sRGB">
<feFlood flood-opacity="0" result="BackgroundImageFix"/>
<feBlend mode="normal" in="SourceGraphic" in2="BackgroundImageFix" result="shape"/>
<feColorMatrix in="SourceAlpha" type="matrix" values="0 0 0 0 0 0 0 0 0 0 0 0 0 0 0 0 0 0 127 0" result="hardAlpha"/>
<feOffset/>
<feGaussianBlur stdDeviation="10"/>
<feComposite in2="hardAlpha" operator="arithmetic" k2="-1" k3="1"/>
<feColorMatrix type="matrix" values="0 0 0 0 0 0 0 0 0 0 0 0 0 0 0 0 0 0 0.1 0"/>
<feBlend mode="normal" in2="shape" result="effect1_innerShadow_408_123"/>
</filter>
<clipPath id="clip0_408_123">
<rect width="1222" height="500" fill="white"/>
</clipPath>
</defs>
</svg>
