<svg width="100%" height="100%"  preserveAspectRatio="none" viewBox="0 0 1920 238" fill="none" xmlns="http://www.w3.org/2000/svg">
<g filter="url(#filter0_f_755_70)">
<path d="M1742.96 237.585C1555.43 233.143 1363.1 212.505 1145.87 173.664C1081.66 162.226 1050.76 156.167 926.088 130.653C807.118 106.331 780.115 101.021 722.805 90.6742C593.935 67.3815 481.417 53.6217 358.999 46.1994C257.584 40.0243 145.215 39.9155 32.7004 45.9282C0.14612 47.6625 -1.20374 47.716 0.446415 47.0666C2.84574 46.1441 63.0072 43.0076 112.215 41.2161C143.868 40.0778 237.485 39.5907 270.63 40.4044C389.143 43.4626 506.755 53.4667 621.532 70.2522C701.796 81.7907 769.455 93.9785 922.329 124.422C1069.35 153.728 1140.15 166.62 1226.13 179.893C1368.5 201.94 1504.87 215.971 1633.44 221.875C1686.69 224.368 1709.95 224.855 1772.96 224.855C1833.57 224.855 1861.47 224.312 1905.43 222.255L1920 221.604V235.96L1915.2 236.284C1891.19 237.692 1782.57 238.559 1742.96 237.585Z" fill="url(#paint0_linear_755_70)"/>
</g>
<g filter="url(#filter1_f_755_70)">
<path d="M1615.67 191.501C1477.97 188.41 1329.91 175.619 1177.65 153.599C1107.15 143.405 1072.65 137.55 911.091 108.432C732.434 76.224 683.53 68.3589 596.378 57.8438C400.468 34.2576 226.768 29.6482 24.5514 42.7155C13.1496 43.4745 2.94902 44.071 2.05139 44.071C-1.69751 44.071 0.101056 43.0941 4.15027 42.8245C6.54944 42.7155 21.5515 41.685 37.6031 40.6564C69.1058 38.5955 110.958 36.5365 153.106 35.0166C190.909 33.6611 299.812 33.6611 338.364 35.0166C441.713 38.5925 544.335 47.0635 645.127 60.3386C721.63 70.4235 773.982 78.8279 910.639 102.903C1023.59 122.848 1066.2 130.015 1118.4 137.876C1280.71 162.331 1430.41 175.885 1579.67 179.627C1607.87 180.332 1692.77 180.332 1720.68 179.627C1774.68 178.218 1836.03 174.964 1886.43 170.735C1902.18 169.442 1916.13 168.186 1917.64 167.965C1920.03 167.584 1920.19 168.074 1919.89 175.067L1919.45 182.609L1896.2 184.345C1849.84 187.815 1795.84 190.417 1747.69 191.557C1719.79 192.157 1644.17 192.157 1615.67 191.501Z" fill="url(#paint1_linear_755_70)"/>
</g>
<g filter="url(#filter2_f_755_70)">
<path d="M1515.84 149.862C1354.9 146.831 1204.45 133.623 1029.4 107.206C1009 104.12 972.103 98.3822 947.354 94.4314C778.608 67.5827 732.707 60.8166 666.709 52.8596C532.46 36.621 408.262 28.8796 281.365 28.7081C196.422 28.7766 111.582 32.0318 27.4196 38.4517C13.9198 39.4804 2.21838 40.2953 1.46931 40.2953C-1.38179 40.2953 0.268162 39.32 3.41955 39.1043C5.36978 38.9421 17.9688 37.9668 31.6204 36.8919C74.971 33.4812 136.167 30.0705 192.117 28.0149C229.917 26.6617 345.865 26.6617 384.863 28.0149C502.613 32.2368 597.56 39.9782 718.606 55.3005C757.604 60.2267 811.604 68.0749 904.604 82.2579C1030.6 101.474 1080.55 108.566 1138.6 115.443C1239.86 127.587 1342.67 135.258 1446.09 138.385C1480.13 139.467 1591.43 139.307 1624.58 138.114C1716.99 135.059 1808.74 127.488 1898.79 115.487C1909.89 114.025 1919.19 112.84 1919.49 112.84C1920.05 115.3 1920.15 117.785 1919.79 120.257L1919.34 127.672L1886.34 131.569C1808.5 140.69 1729.52 146.462 1650.1 148.837C1625.34 149.644 1539.24 150.295 1515.84 149.862Z" fill="url(#paint2_linear_755_70)"/>
</g>
<g filter="url(#filter3_f_755_70)">
<path d="M1377.74 111.632C1274.08 108.962 1170.99 101.515 1069.53 89.3645C1021.09 83.6376 995.898 80.3471 900.062 67.4266C774.981 50.5146 722.64 44.0847 662.201 38.1407C574.993 29.5238 486.87 24.0908 398.393 21.8764C361.649 20.8495 273.765 21.0115 239.419 22.1469C162.783 24.6331 90.9383 28.7388 22.8548 34.6828C3.20905 36.3575 -2.04047 36.5746 0.658585 35.6563C3.6579 34.5761 80.2939 28.5235 129.936 25.4447C197.871 20.9463 266.241 18.7988 334.652 19.0148C465.431 19.0148 581.962 25.4447 724.438 40.5735C764.482 44.8429 813.672 50.8403 899.316 61.9206C1004.45 75.5385 1047.64 80.7778 1094.28 85.5864C1285.8 105.461 1470.12 108.063 1649.2 93.4756C1731.43 86.5868 1812.53 76.0166 1891.71 61.8672C1906.4 59.2191 1918.7 57.0604 1919.15 57.0604C1919.91 59.5215 1920.16 62.0238 1919.9 64.5172V72.0273L1915.85 72.7303C1783.57 94.9368 1674.69 106.122 1543.46 110.877C1515.11 111.902 1407.58 112.388 1377.74 111.632Z" fill="url(#paint3_linear_755_70)"/>
</g>
<g filter="url(#filter4_f_755_70)">
<path d="M1302.12 77.7099C1260.41 77.1175 1208.21 75.1254 1167.55 72.6473C1096.75 68.3917 1039.89 63.0613 904.579 47.9265C765.518 32.4157 714.511 27.4062 644.307 22.3436C581.901 17.8734 529.696 15.2889 464.291 13.3555C432.038 12.4384 317.728 12.4384 285.776 13.3555C196.416 16.2291 107.416 21.8932 19.2002 30.3209C6.44844 31.5591 -2.18469e-05 31.9369 -2.18469e-05 31.5591C-2.18469e-05 30.752 46.5056 26.2268 91.5097 22.6187C207.17 13.3555 284.878 10.0703 389.288 10.0703C484.77 9.98555 580.149 13.5488 674.751 20.7349C738.206 25.4747 790.256 30.4291 909.823 43.0858C980.179 50.5183 1027.73 55.2031 1068.69 58.6498C1255.91 74.5384 1432.92 72.8142 1611.44 53.3725C1710.9 42.2031 1808.17 25.6625 1901.85 3.98593C1911.15 1.78478 1919.1 -8.84727e-07 1919.55 -8.84727e-07C1920.02 2.54043 1920.12 5.09779 1919.85 7.64719L1919.4 15.2412L1907.85 17.8257C1846.86 31.1426 1784.5 42.4372 1721.11 51.6501C1584.26 70.9852 1443.27 79.7542 1302.12 77.7099V77.7099Z" fill="url(#paint4_linear_755_70)"/>
</g>
<defs>
<filter id="filter0_f_755_70" x="-1" y="39" width="1922" height="200" filterUnits="userSpaceOnUse" color-interpolation-filters="sRGB">
<feFlood flood-opacity="0" result="BackgroundImageFix"/>
<feBlend mode="normal" in="SourceGraphic" in2="BackgroundImageFix" result="shape"/>
<feGaussianBlur stdDeviation="0.5" result="effect1_foregroundBlur_755_70"/>
</filter>
<filter id="filter1_f_755_70" x="-1" y="33" width="1922" height="160" filterUnits="userSpaceOnUse" color-interpolation-filters="sRGB">
<feFlood flood-opacity="0" result="BackgroundImageFix"/>
<feBlend mode="normal" in="SourceGraphic" in2="BackgroundImageFix" result="shape"/>
<feGaussianBlur stdDeviation="0.5" result="effect1_foregroundBlur_755_70"/>
</filter>
<filter id="filter2_f_755_70" x="-1" y="26" width="1922" height="125" filterUnits="userSpaceOnUse" color-interpolation-filters="sRGB">
<feFlood flood-opacity="0" result="BackgroundImageFix"/>
<feBlend mode="normal" in="SourceGraphic" in2="BackgroundImageFix" result="shape"/>
<feGaussianBlur stdDeviation="0.5" result="effect1_foregroundBlur_755_70"/>
</filter>
<filter id="filter3_f_755_70" x="-1" y="18" width="1922" height="95" filterUnits="userSpaceOnUse" color-interpolation-filters="sRGB">
<feFlood flood-opacity="0" result="BackgroundImageFix"/>
<feBlend mode="normal" in="SourceGraphic" in2="BackgroundImageFix" result="shape"/>
<feGaussianBlur stdDeviation="0.5" result="effect1_foregroundBlur_755_70"/>
</filter>
<filter id="filter4_f_755_70" x="-1" y="-1" width="1922" height="80" filterUnits="userSpaceOnUse" color-interpolation-filters="sRGB">
<feFlood flood-opacity="0" result="BackgroundImageFix"/>
<feBlend mode="normal" in="SourceGraphic" in2="BackgroundImageFix" result="shape"/>
<feGaussianBlur stdDeviation="0.5" result="effect1_foregroundBlur_755_70"/>
</filter>
<linearGradient id="paint0_linear_755_70" x1="1920.09" y1="82.9028" x2="-0.331471" y2="82.9027" gradientUnits="userSpaceOnUse">
<stop stop-color="#6EABAD"/>
<stop offset="1" stop-color="#6EABAD" stop-opacity="0"/>
</linearGradient>
<linearGradient id="paint1_linear_755_70" x1="1920.23" y1="72.2805" x2="-0.0627309" y2="72.2805" gradientUnits="userSpaceOnUse">
<stop stop-color="#6EABAD"/>
<stop offset="1" stop-color="#6EABAD" stop-opacity="0"/>
</linearGradient>
<linearGradient id="paint2_linear_755_70" x1="1920.11" y1="150" x2="-0.0659545" y2="150" gradientUnits="userSpaceOnUse">
<stop stop-color="#6EABAD"/>
<stop offset="1" stop-color="#6EABAD" stop-opacity="0"/>
</linearGradient>
<linearGradient id="paint3_linear_755_70" x1="1920" y1="55.7327" x2="-0.000114441" y2="55.7327" gradientUnits="userSpaceOnUse">
<stop stop-color="#6EABAD"/>
<stop offset="1" stop-color="#6EABAD" stop-opacity="0"/>
</linearGradient>
<linearGradient id="paint4_linear_755_70" x1="1920.22" y1="15.4255" x2="-0.107776" y2="-0.160327" gradientUnits="userSpaceOnUse">
<stop stop-color="#6EABAD"/>
<stop offset="1" stop-color="#6EABAD" stop-opacity="0"/>
</linearGradient>
</defs>
</svg>
