<svg xmlns="http://www.w3.org/2000/svg" width="100%" height="100%" preserveAspectRatio="none" viewBox="0 0 400 129.09"><path d="M363.231-420.575c-39.059-2.408-79.118-13.594-124.363-34.646-13.374-6.2-19.811-9.484-45.777-23.313-24.779-13.183-30.4-16.06-42.34-21.668-26.841-12.625-50.277-20.083-75.774-24.105-21.123-3.347-44.527-3.406-67.962-.147-6.781.94-7.062.969-6.718.617.5-.5,13.03-2.2,23.279-3.171,6.593-.617,26.091-.881,33-.44,24.31,1.586,48.277,6.87,73.087,16.178,16.717,6.254,30.81,12.86,62.65,29.361,30.622,15.884,45.371,22.872,63.275,30.066,29.653,11.95,58.057,19.554,84.836,22.755,11.093,1.351,15.936,1.615,29.06,1.615,12.624,0,18.436-.294,27.591-1.409l3.031-.352v7.781l-1,.176C394.1-420.516,371.48-420.046,363.231-420.575Z" transform="translate(-0.102 549.44)"/><path d="M336.482-356.527c-28.685-1.674-59.525-8.6-91.241-20.523-14.686-5.52-21.873-8.691-55.526-24.458-37.215-17.44-47.4-21.7-65.556-27.394-40.808-12.772-76.992-15.268-119.113-8.192-2.375.411-4.5.734-4.687.734-.781,0-.406-.529.437-.675.5-.059,3.625-.617,6.968-1.174,6.562-1.116,15.28-2.231,24.06-3.054,7.874-.734,30.559-.734,38.59,0a272.341,272.341,0,0,1,63.9,13.712c15.936,5.461,26.841,10.012,55.307,23.048,23.529,10.8,32.4,14.68,43.277,18.938,33.809,13.242,64.994,20.582,96.084,22.608,5.874.382,23.56.382,29.372,0a251,251,0,0,0,34.528-4.815c3.281-.7,6.187-1.38,6.5-1.5.5-.206.531.059.469,3.846l-.094,4.081-4.843.94a249.6,249.6,0,0,1-30.934,3.9C358.168-356.175,342.419-356.175,336.482-356.527Z" transform="translate(0.089 460.141)"/><path d="M315.7-298.014c-33.528-1.644-64.869-8.808-101.334-23.136-4.25-1.674-11.936-4.786-17.092-6.929-35.153-14.563-44.714-18.233-58.463-22.549-27.966-8.808-53.838-13.007-80.273-13.095a274.178,274.178,0,0,0-52.9,5.285c-2.812.558-5.249,1-5.406,1-.594,0-.25-.529.406-.646.406-.088,3.031-.617,5.874-1.2,9.03-1.85,21.779-3.7,33.434-4.815,7.874-.734,32.028-.734,40.152,0,24.529,2.29,44.308,6.489,69.524,14.8,8.124,2.672,19.373,6.929,38.746,14.622,26.247,10.423,36.653,14.269,48.745,18a291.375,291.375,0,0,0,64.056,12.449c7.093.587,30.278.5,37.184-.147a235.685,235.685,0,0,0,57.119-12.273c2.312-.793,4.25-1.439,4.312-1.439a28.231,28.231,0,0,1,.063,4.022l-.094,4.022-6.874,2.114a229.529,229.529,0,0,1-49.214,9.366C338.506-298.131,320.57-297.779,315.7-298.014Z" transform="translate(0.097 379.167)"/><path d="M286.9-244.357a277.4,277.4,0,0,1-64.212-12.1c-10.093-3.112-15.342-4.9-35.309-11.921-26.06-9.19-36.965-12.684-49.557-15.914a297.767,297.767,0,0,0-54.963-8.838,310.983,310.983,0,0,0-33.121.147,327,327,0,0,0-45.12,6.812c-4.093.91-5.187,1.028-4.624.529.625-.587,16.592-3.876,26.935-5.549a238.8,238.8,0,0,1,42.652-3.494c27.247,0,51.526,3.494,81.21,11.715,8.343,2.32,18.592,5.579,36.434,11.6,21.9,7.4,30.9,10.247,40.621,12.86,39.9,10.8,78.3,12.214,115.612,4.287A241.691,241.691,0,0,0,393.986-271.4c3.062-1.439,5.624-2.613,5.718-2.613a25.388,25.388,0,0,1,.156,4.052v4.081l-.844.382c-27.56,12.067-50.245,18.145-77.585,20.729C315.526-244.21,293.122-243.946,286.9-244.357Z" transform="translate(0.139 304.84)"/><path d="M271.224-190.508a253.434,253.434,0,0,1-28.029-2.76c-14.749-2.32-26.591-5.226-54.776-13.477-28.966-8.456-39.59-11.187-54.214-13.946a329.138,329.138,0,0,0-37.5-4.9c-6.718-.5-30.528-.5-37.184,0A349.582,349.582,0,0,0,4-216.346c-2.656.675-4,.881-4,.675,0-.44,9.687-2.907,19.061-4.874,24.091-5.05,40.277-6.841,62.025-6.841a300.978,300.978,0,0,1,59.463,5.813c13.217,2.584,24.06,5.285,48.964,12.185,14.655,4.052,24.56,6.606,33.091,8.485,39,8.661,75.868,7.722,113.052-2.877,19.623-5.608,41.621-15.385,60.494-26.924,1.937-1.2,3.593-2.173,3.687-2.173a37.6,37.6,0,0,1,.063,4.169l-.094,4.14-2.406,1.409a276.712,276.712,0,0,1-38.9,18.439A225.928,225.928,0,0,1,271.224-190.508Z" transform="translate(0.041 232.876)"/></svg>